<?xml version="1.0" encoding="utf-8"?>
<!-- Generator: Adobe Illustrator 16.0.4, SVG Export Plug-In . SVG Version: 6.00 Build 0)  -->
<!DOCTYPE svg PUBLIC "-//W3C//DTD SVG 1.1//EN" "http://www.w3.org/Graphics/SVG/1.1/DTD/svg11.dtd">
<svg version="1.1" id="Layer_1" xmlns="http://www.w3.org/2000/svg" xmlns:xlink="http://www.w3.org/1999/xlink" x="0px" y="0px"
	 width="50px" height="50px" viewBox="0 0 50 50" enable-background="new 0 0 50 50" xml:space="preserve">
<path d="M17.499,23.547c0.215-0.285,0.574-0.44,1.084-0.459v2.707c-0.432-0.084-0.772-0.233-1.025-0.448
	c-0.254-0.215-0.38-0.514-0.38-0.893C17.178,24.14,17.284,23.836,17.499,23.547z M38.427,11.704H22.87
	c-1.004,0-1.821,0.818-1.821,1.824v4.641h1v-4.641c0-0.455,0.369-0.824,0.821-0.824h15.557c0.454,0,0.822,0.37,0.822,0.824v12.965
	c0,0.454-0.369,0.822-0.822,0.822h-3.915v3.064l-3.064-3.064h-2.752v1h2.338l4.479,4.479v-4.479h2.916
	c1.006,0,1.822-0.816,1.822-1.822V13.527C40.249,12.521,39.432,11.704,38.427,11.704z M20.152,27.396
	c-0.202-0.146-0.543-0.283-1.024-0.414v3.028c0.658-0.03,1.109-0.27,1.361-0.721c0.129-0.231,0.192-0.496,0.192-0.799
	C20.682,28.01,20.505,27.646,20.152,27.396z M27.949,20.237v12.964c0,0.73-0.592,1.323-1.321,1.323h-8.369l-3.771,3.772v-3.772
	h-3.416c-0.73,0-1.322-0.593-1.322-1.323V20.237c0-0.73,0.592-1.323,1.322-1.323h15.557C27.357,18.915,27.949,19.507,27.949,20.237z
	 M21.722,28.207c0-0.705-0.263-1.242-0.779-1.6c-0.317-0.22-0.925-0.454-1.814-0.703v-2.807c0.53,0.021,0.916,0.225,1.158,0.614
	c0.131,0.208,0.209,0.46,0.234,0.751h1.01c-0.02-0.649-0.232-1.174-0.645-1.57c-0.406-0.396-0.993-0.621-1.758-0.677v-0.752h-0.545
	v0.767c-0.772,0.008-1.373,0.246-1.801,0.715c-0.428,0.469-0.641,0.993-0.641,1.577c0,0.651,0.198,1.163,0.594,1.53
	c0.398,0.369,1.012,0.633,1.848,0.791v3.135c-0.65-0.051-1.098-0.295-1.336-0.729c-0.136-0.242-0.219-0.627-0.247-1.152h-1.022
	c0,0.66,0.11,1.186,0.33,1.572c0.396,0.719,1.158,1.113,2.275,1.186v1.118h0.545v-1.118c0.697-0.078,1.227-0.232,1.594-0.471
	C21.39,29.955,21.722,29.229,21.722,28.207z"/>
</svg>
