<?xml version="1.0" encoding="iso-8859-1"?>
<!-- Generator: Adobe Illustrator 16.0.0, SVG Export Plug-In . SVG Version: 6.00 Build 0)  -->
<!DOCTYPE svg PUBLIC "-//W3C//DTD SVG 1.1//EN" "http://www.w3.org/Graphics/SVG/1.1/DTD/svg11.dtd">
<svg version="1.1" id="Capa_1" xmlns="http://www.w3.org/2000/svg" xmlns:xlink="http://www.w3.org/1999/xlink" x="0px" y="0px"
	 width="31.829px" height="22.289px" viewBox="0 0 31.829 22.289" style="enable-background:new 0 0 31.829 22.289;"
	 xml:space="preserve">
<path style="fill:#000000;" d="M22.222,0C20.855,0,10.875,0,9.667,0C1.381,0-3.368,22.289,2.831,22.289
	c5.229,0,5.933-6.518,13.094-6.518c5.792,0,9.192,6.436,13.056,6.436C35.175,22.207,30.509,0,22.222,0z M9.722,11.143
	c-2.294,0-4.153-1.859-4.153-4.15c0-2.289,1.859-4.148,4.153-4.148c2.292,0,4.15,1.859,4.15,4.148
	C13.872,9.283,12.013,11.143,9.722,11.143z M20.023,7.65c-0.677-0.211-1.055-0.932-0.84-1.611c0.211-0.676,0.932-1.053,1.61-0.84
	c0.677,0.209,1.058,0.93,0.843,1.607C21.423,7.488,20.702,7.861,20.023,7.65z M23.914,10.729c-0.322,1.033-1.422,1.611-2.457,1.285
	c-1.033-0.322-1.608-1.422-1.283-2.457c0.322-1.033,1.424-1.611,2.457-1.285C23.664,8.596,24.238,9.697,23.914,10.729z
	 M23.175,6.215c-0.953-0.303-1.484-1.32-1.186-2.271c0.301-0.955,1.316-1.488,2.27-1.186c0.955,0.297,1.486,1.314,1.184,2.268
	C25.148,5.979,24.132,6.514,23.175,6.215z M26.732,8.854c-0.217,0.68-0.936,1.055-1.613,0.844c-0.676-0.211-1.055-0.932-0.844-1.613
	c0.215-0.678,0.938-1.053,1.611-0.844C26.566,7.455,26.943,8.174,26.732,8.854z M11.819,7.055c0,1.184-0.956,2.141-2.137,2.141
	c-1.183,0-2.139-0.957-2.139-2.141c0-1.178,0.956-2.137,2.139-2.137C10.863,4.918,11.819,5.877,11.819,7.055z"/>
<g>
</g>
<g>
</g>
<g>
</g>
<g>
</g>
<g>
</g>
<g>
</g>
<g>
</g>
<g>
</g>
<g>
</g>
<g>
</g>
<g>
</g>
<g>
</g>
<g>
</g>
<g>
</g>
<g>
</g>
</svg>
